<svg width="500" height="400" viewBox="0 0 500 400" fill="none" xmlns="http://www.w3.org/2000/svg">
<rect width="500" height="400" rx="5" fill="#F1F2F7"/>
<g clip-path="url(#clip0_228_1880)">
<rect x="20" y="20" width="145" height="360" rx="15" fill="white"/>
<rect x="35" y="85" width="115" height="25" rx="12.5" fill="#F1F2F7"/>
<rect x="35" y="121" width="115" height="25" rx="12.5" fill="#F1F2F7"/>
<rect x="35" y="157" width="115" height="25" rx="12.5" fill="#F1F2F7"/>
<rect x="35" y="193" width="115" height="25" rx="12.5" fill="#F1F2F7"/>
<path d="M48.415 40.845C46.9417 40.845 46.205 40.13 46.205 38.7C46.205 37.27 46.8983 36.555 48.285 36.555C49.7583 36.555 50.495 37.27 50.495 38.7C50.495 40.13 49.8017 40.845 48.415 40.845ZM39.575 66C38.3183 66 37.69 65.3717 37.69 64.115C37.69 63.335 37.95 62.2733 38.47 60.93C39.5967 58.1567 40.6583 55.6 41.655 53.26C42.6517 50.92 43.5833 48.7967 44.45 46.89C44.58 46.6733 44.645 46.435 44.645 46.175C44.645 45.5683 44.3633 44.9183 43.8 44.225L47.375 44.16C48.5883 44.16 49.195 44.4633 49.195 45.07C49.195 45.2433 49.1517 45.4383 49.065 45.655C48.9783 45.8283 48.87 46.0883 48.74 46.435L42.76 60.28C42.1533 61.71 41.85 62.9233 41.85 63.92C41.85 64.96 42.175 65.6533 42.825 66H39.575ZM47.8219 66.455C48.6885 64.3317 49.7719 61.71 51.0719 58.59C52.3719 55.47 53.9535 51.8733 55.8169 47.8C56.2069 46.9333 56.5752 46.2183 56.9219 45.655C57.2685 45.0917 57.5935 44.6583 57.8969 44.355C58.5035 43.7483 59.2835 43.445 60.2369 43.445C60.3235 43.445 60.4752 43.445 60.6919 43.445C60.9085 43.445 61.2119 43.4883 61.6019 43.575C62.2085 43.6183 62.6635 43.6183 62.9669 43.575C61.3635 44.5283 58.9585 48.7317 55.7519 56.185C56.2719 55.4483 56.9652 54.6467 57.8319 53.78C58.7419 52.87 59.8035 51.8733 61.0169 50.79C61.7969 50.0533 62.6635 49.36 63.6169 48.71C64.5702 48.0167 65.6102 47.3667 66.7369 46.76C69.2935 45.33 71.1785 44.615 72.3919 44.615C72.6952 44.615 72.9119 44.6367 73.0419 44.68C72.3485 45.8933 71.6985 47.0633 71.0919 48.19C70.5285 49.3167 69.9869 50.3783 69.4669 51.375C66.9535 56.2283 65.5452 59.5867 65.2419 61.45C65.1985 61.7533 65.1552 62.035 65.1119 62.295C65.1119 62.555 65.1119 62.7933 65.1119 63.01C65.1119 64.1367 65.5235 64.7 66.3469 64.7C67.6902 64.7 69.2935 63.335 71.1569 60.605L72.0669 61.255C69.8569 64.5917 67.6252 66.26 65.3719 66.26C62.6419 66.26 61.2769 64.8517 61.2769 62.035C61.2769 59.7383 62.6852 56.3367 65.5019 51.83C65.9352 51.1367 66.1519 50.5517 66.1519 50.075C66.1519 49.555 65.9135 49.295 65.4369 49.295C64.9602 49.295 64.3319 49.555 63.5519 50.075C62.8152 50.5517 61.9269 51.2667 60.8869 52.22C59.2402 53.7367 57.7019 55.5567 56.2719 57.68C54.8419 59.76 53.5419 62.1433 52.3719 64.83C52.1119 65.48 51.4402 65.87 50.3569 66C48.9702 66.13 48.1252 66.2817 47.8219 66.455ZM79.1473 66.26C76.9806 66.26 75.3123 65.61 74.1423 64.31C73.189 63.2267 72.7123 61.9267 72.7123 60.41C72.7123 58.2 73.4056 57.095 74.7923 57.095C75.3123 57.095 75.789 57.29 76.2223 57.68C76.6556 58.1133 76.8723 58.6117 76.8723 59.175C76.8723 59.5217 76.7856 59.8033 76.6123 60.02C76.049 60.7133 75.7673 61.4717 75.7673 62.295C75.7673 63.1183 76.0273 63.79 76.5473 64.31C77.1106 64.8733 77.8256 65.155 78.6923 65.155C79.6023 65.155 80.4256 64.8517 81.1623 64.245C82.159 63.335 82.6573 62.0783 82.6573 60.475C82.6573 59.0883 82.289 57.5283 81.5523 55.795C81.249 55.3617 80.8806 54.7983 80.4473 54.105C80.0573 53.4117 79.6023 52.5883 79.0823 51.635C78.779 51.115 78.5623 50.595 78.4323 50.075C78.3456 49.5117 78.3023 48.97 78.3023 48.45C78.3023 46.63 78.974 45.1783 80.3173 44.095C81.704 42.9683 83.4806 42.405 85.6473 42.405C86.254 42.405 86.839 42.47 87.4023 42.6C88.009 42.73 88.5506 42.9683 89.0273 43.315C90.024 44.0517 90.5223 44.9617 90.5223 46.045C90.5223 46.5217 90.4356 46.955 90.2623 47.345C89.8723 48.4717 89.0273 49.035 87.7273 49.035C86.2973 49.035 85.5823 48.2983 85.5823 46.825C85.5823 46.3917 85.6473 46.0233 85.7773 45.72C85.9073 45.2867 86.384 44.8533 87.2073 44.42C86.904 43.8567 86.3406 43.575 85.5173 43.575C84.7806 43.575 84.239 43.7483 83.8923 44.095C82.8523 45.005 82.3323 46.1533 82.3323 47.54C82.3323 48.4933 82.5923 49.5333 83.1123 50.66C83.199 50.8333 84.044 52.1983 85.6473 54.755C86.7306 56.4883 87.2723 57.94 87.2723 59.11C87.2723 60.9733 86.4056 62.62 84.6723 64.05C82.939 65.5233 81.0973 66.26 79.1473 66.26Z" fill="#EDEEF3"/>
<path d="M49.415 40.845C47.9417 40.845 47.205 40.13 47.205 38.7C47.205 37.27 47.8983 36.555 49.285 36.555C50.7583 36.555 51.495 37.27 51.495 38.7C51.495 40.13 50.8017 40.845 49.415 40.845ZM40.575 66C39.3183 66 38.69 65.3717 38.69 64.115C38.69 63.335 38.95 62.2733 39.47 60.93C40.5967 58.1567 41.6583 55.6 42.655 53.26C43.6517 50.92 44.5833 48.7967 45.45 46.89C45.58 46.6733 45.645 46.435 45.645 46.175C45.645 45.5683 45.3633 44.9183 44.8 44.225L48.375 44.16C49.5883 44.16 50.195 44.4633 50.195 45.07C50.195 45.2433 50.1517 45.4383 50.065 45.655C49.9783 45.8283 49.87 46.0883 49.74 46.435L43.76 60.28C43.1533 61.71 42.85 62.9233 42.85 63.92C42.85 64.96 43.175 65.6533 43.825 66H40.575ZM48.8219 66.455C49.6885 64.3317 50.7719 61.71 52.0719 58.59C53.3719 55.47 54.9535 51.8733 56.8169 47.8C57.2069 46.9333 57.5752 46.2183 57.9219 45.655C58.2685 45.0917 58.5935 44.6583 58.8969 44.355C59.5035 43.7483 60.2835 43.445 61.2369 43.445C61.3235 43.445 61.4752 43.445 61.6919 43.445C61.9085 43.445 62.2119 43.4883 62.6019 43.575C63.2085 43.6183 63.6635 43.6183 63.9669 43.575C62.3635 44.5283 59.9585 48.7317 56.7519 56.185C57.2719 55.4483 57.9652 54.6467 58.8319 53.78C59.7419 52.87 60.8035 51.8733 62.0169 50.79C62.7969 50.0533 63.6635 49.36 64.6169 48.71C65.5702 48.0167 66.6102 47.3667 67.7369 46.76C70.2935 45.33 72.1785 44.615 73.3919 44.615C73.6952 44.615 73.9119 44.6367 74.0419 44.68C73.3485 45.8933 72.6985 47.0633 72.0919 48.19C71.5285 49.3167 70.9869 50.3783 70.4669 51.375C67.9535 56.2283 66.5452 59.5867 66.2419 61.45C66.1985 61.7533 66.1552 62.035 66.1119 62.295C66.1119 62.555 66.1119 62.7933 66.1119 63.01C66.1119 64.1367 66.5235 64.7 67.3469 64.7C68.6902 64.7 70.2935 63.335 72.1569 60.605L73.0669 61.255C70.8569 64.5917 68.6252 66.26 66.3719 66.26C63.6419 66.26 62.2769 64.8517 62.2769 62.035C62.2769 59.7383 63.6852 56.3367 66.5019 51.83C66.9352 51.1367 67.1519 50.5517 67.1519 50.075C67.1519 49.555 66.9135 49.295 66.4369 49.295C65.9602 49.295 65.3319 49.555 64.5519 50.075C63.8152 50.5517 62.9269 51.2667 61.8869 52.22C60.2402 53.7367 58.7019 55.5567 57.2719 57.68C55.8419 59.76 54.5419 62.1433 53.3719 64.83C53.1119 65.48 52.4402 65.87 51.3569 66C49.9702 66.13 49.1252 66.2817 48.8219 66.455ZM80.1473 66.26C77.9806 66.26 76.3123 65.61 75.1423 64.31C74.189 63.2267 73.7123 61.9267 73.7123 60.41C73.7123 58.2 74.4056 57.095 75.7923 57.095C76.3123 57.095 76.789 57.29 77.2223 57.68C77.6556 58.1133 77.8723 58.6117 77.8723 59.175C77.8723 59.5217 77.7856 59.8033 77.6123 60.02C77.049 60.7133 76.7673 61.4717 76.7673 62.295C76.7673 63.1183 77.0273 63.79 77.5473 64.31C78.1106 64.8733 78.8256 65.155 79.6923 65.155C80.6023 65.155 81.4256 64.8517 82.1623 64.245C83.159 63.335 83.6573 62.0783 83.6573 60.475C83.6573 59.0883 83.289 57.5283 82.5523 55.795C82.249 55.3617 81.8806 54.7983 81.4473 54.105C81.0573 53.4117 80.6023 52.5883 80.0823 51.635C79.779 51.115 79.5623 50.595 79.4323 50.075C79.3456 49.5117 79.3023 48.97 79.3023 48.45C79.3023 46.63 79.974 45.1783 81.3173 44.095C82.704 42.9683 84.4806 42.405 86.6473 42.405C87.254 42.405 87.839 42.47 88.4023 42.6C89.009 42.73 89.5506 42.9683 90.0273 43.315C91.024 44.0517 91.5223 44.9617 91.5223 46.045C91.5223 46.5217 91.4356 46.955 91.2623 47.345C90.8723 48.4717 90.0273 49.035 88.7273 49.035C87.2973 49.035 86.5823 48.2983 86.5823 46.825C86.5823 46.3917 86.6473 46.0233 86.7773 45.72C86.9073 45.2867 87.384 44.8533 88.2073 44.42C87.904 43.8567 87.3406 43.575 86.5173 43.575C85.7806 43.575 85.239 43.7483 84.8923 44.095C83.8523 45.005 83.3323 46.1533 83.3323 47.54C83.3323 48.4933 83.5923 49.5333 84.1123 50.66C84.199 50.8333 85.044 52.1983 86.6473 54.755C87.7306 56.4883 88.2723 57.94 88.2723 59.11C88.2723 60.9733 87.4056 62.62 85.6723 64.05C83.939 65.5233 82.0973 66.26 80.1473 66.26Z" fill="#EDEEF3"/>
<path d="M50.415 40.845C48.9417 40.845 48.205 40.13 48.205 38.7C48.205 37.27 48.8983 36.555 50.285 36.555C51.7583 36.555 52.495 37.27 52.495 38.7C52.495 40.13 51.8017 40.845 50.415 40.845ZM41.575 66C40.3183 66 39.69 65.3717 39.69 64.115C39.69 63.335 39.95 62.2733 40.47 60.93C41.5967 58.1567 42.6583 55.6 43.655 53.26C44.6517 50.92 45.5833 48.7967 46.45 46.89C46.58 46.6733 46.645 46.435 46.645 46.175C46.645 45.5683 46.3633 44.9183 45.8 44.225L49.375 44.16C50.5883 44.16 51.195 44.4633 51.195 45.07C51.195 45.2433 51.1517 45.4383 51.065 45.655C50.9783 45.8283 50.87 46.0883 50.74 46.435L44.76 60.28C44.1533 61.71 43.85 62.9233 43.85 63.92C43.85 64.96 44.175 65.6533 44.825 66H41.575ZM49.8219 66.455C50.6885 64.3317 51.7719 61.71 53.0719 58.59C54.3719 55.47 55.9535 51.8733 57.8169 47.8C58.2069 46.9333 58.5752 46.2183 58.9219 45.655C59.2685 45.0917 59.5935 44.6583 59.8969 44.355C60.5035 43.7483 61.2835 43.445 62.2369 43.445C62.3235 43.445 62.4752 43.445 62.6919 43.445C62.9085 43.445 63.2119 43.4883 63.6019 43.575C64.2085 43.6183 64.6635 43.6183 64.9669 43.575C63.3635 44.5283 60.9585 48.7317 57.7519 56.185C58.2719 55.4483 58.9652 54.6467 59.8319 53.78C60.7419 52.87 61.8035 51.8733 63.0169 50.79C63.7969 50.0533 64.6635 49.36 65.6169 48.71C66.5702 48.0167 67.6102 47.3667 68.7369 46.76C71.2935 45.33 73.1785 44.615 74.3919 44.615C74.6952 44.615 74.9119 44.6367 75.0419 44.68C74.3485 45.8933 73.6985 47.0633 73.0919 48.19C72.5285 49.3167 71.9869 50.3783 71.4669 51.375C68.9535 56.2283 67.5452 59.5867 67.2419 61.45C67.1985 61.7533 67.1552 62.035 67.1119 62.295C67.1119 62.555 67.1119 62.7933 67.1119 63.01C67.1119 64.1367 67.5235 64.7 68.3469 64.7C69.6902 64.7 71.2935 63.335 73.1569 60.605L74.0669 61.255C71.8569 64.5917 69.6252 66.26 67.3719 66.26C64.6419 66.26 63.2769 64.8517 63.2769 62.035C63.2769 59.7383 64.6852 56.3367 67.5019 51.83C67.9352 51.1367 68.1519 50.5517 68.1519 50.075C68.1519 49.555 67.9135 49.295 67.4369 49.295C66.9602 49.295 66.3319 49.555 65.5519 50.075C64.8152 50.5517 63.9269 51.2667 62.8869 52.22C61.2402 53.7367 59.7019 55.5567 58.2719 57.68C56.8419 59.76 55.5419 62.1433 54.3719 64.83C54.1119 65.48 53.4402 65.87 52.3569 66C50.9702 66.13 50.1252 66.2817 49.8219 66.455ZM81.1473 66.26C78.9806 66.26 77.3123 65.61 76.1423 64.31C75.189 63.2267 74.7123 61.9267 74.7123 60.41C74.7123 58.2 75.4056 57.095 76.7923 57.095C77.3123 57.095 77.789 57.29 78.2223 57.68C78.6556 58.1133 78.8723 58.6117 78.8723 59.175C78.8723 59.5217 78.7856 59.8033 78.6123 60.02C78.049 60.7133 77.7673 61.4717 77.7673 62.295C77.7673 63.1183 78.0273 63.79 78.5473 64.31C79.1106 64.8733 79.8256 65.155 80.6923 65.155C81.6023 65.155 82.4256 64.8517 83.1623 64.245C84.159 63.335 84.6573 62.0783 84.6573 60.475C84.6573 59.0883 84.289 57.5283 83.5523 55.795C83.249 55.3617 82.8806 54.7983 82.4473 54.105C82.0573 53.4117 81.6023 52.5883 81.0823 51.635C80.779 51.115 80.5623 50.595 80.4323 50.075C80.3456 49.5117 80.3023 48.97 80.3023 48.45C80.3023 46.63 80.974 45.1783 82.3173 44.095C83.704 42.9683 85.4806 42.405 87.6473 42.405C88.254 42.405 88.839 42.47 89.4023 42.6C90.009 42.73 90.5506 42.9683 91.0273 43.315C92.024 44.0517 92.5223 44.9617 92.5223 46.045C92.5223 46.5217 92.4356 46.955 92.2623 47.345C91.8723 48.4717 91.0273 49.035 89.7273 49.035C88.2973 49.035 87.5823 48.2983 87.5823 46.825C87.5823 46.3917 87.6473 46.0233 87.7773 45.72C87.9073 45.2867 88.384 44.8533 89.2073 44.42C88.904 43.8567 88.3406 43.575 87.5173 43.575C86.7806 43.575 86.239 43.7483 85.8923 44.095C84.8523 45.005 84.3323 46.1533 84.3323 47.54C84.3323 48.4933 84.5923 49.5333 85.1123 50.66C85.199 50.8333 86.044 52.1983 87.6473 54.755C88.7306 56.4883 89.2723 57.94 89.2723 59.11C89.2723 60.9733 88.4056 62.62 86.6723 64.05C84.939 65.5233 83.0973 66.26 81.1473 66.26Z" fill="#EDEEF3"/>
<path d="M48.415 39.845C46.9417 39.845 46.205 39.13 46.205 37.7C46.205 36.27 46.8983 35.555 48.285 35.555C49.7583 35.555 50.495 36.27 50.495 37.7C50.495 39.13 49.8017 39.845 48.415 39.845ZM39.575 65C38.3183 65 37.69 64.3717 37.69 63.115C37.69 62.335 37.95 61.2733 38.47 59.93C39.5967 57.1567 40.6583 54.6 41.655 52.26C42.6517 49.92 43.5833 47.7967 44.45 45.89C44.58 45.6733 44.645 45.435 44.645 45.175C44.645 44.5683 44.3633 43.9183 43.8 43.225L47.375 43.16C48.5883 43.16 49.195 43.4633 49.195 44.07C49.195 44.2433 49.1517 44.4383 49.065 44.655C48.9783 44.8283 48.87 45.0883 48.74 45.435L42.76 59.28C42.1533 60.71 41.85 61.9233 41.85 62.92C41.85 63.96 42.175 64.6533 42.825 65H39.575ZM47.8219 65.455C48.6885 63.3317 49.7719 60.71 51.0719 57.59C52.3719 54.47 53.9535 50.8733 55.8169 46.8C56.2069 45.9333 56.5752 45.2183 56.9219 44.655C57.2685 44.0917 57.5935 43.6583 57.8969 43.355C58.5035 42.7483 59.2835 42.445 60.2369 42.445C60.3235 42.445 60.4752 42.445 60.6919 42.445C60.9085 42.445 61.2119 42.4883 61.6019 42.575C62.2085 42.6183 62.6635 42.6183 62.9669 42.575C61.3635 43.5283 58.9585 47.7317 55.7519 55.185C56.2719 54.4483 56.9652 53.6467 57.8319 52.78C58.7419 51.87 59.8035 50.8733 61.0169 49.79C61.7969 49.0533 62.6635 48.36 63.6169 47.71C64.5702 47.0167 65.6102 46.3667 66.7369 45.76C69.2935 44.33 71.1785 43.615 72.3919 43.615C72.6952 43.615 72.9119 43.6367 73.0419 43.68C72.3485 44.8933 71.6985 46.0633 71.0919 47.19C70.5285 48.3167 69.9869 49.3783 69.4669 50.375C66.9535 55.2283 65.5452 58.5867 65.2419 60.45C65.1985 60.7533 65.1552 61.035 65.1119 61.295C65.1119 61.555 65.1119 61.7933 65.1119 62.01C65.1119 63.1367 65.5235 63.7 66.3469 63.7C67.6902 63.7 69.2935 62.335 71.1569 59.605L72.0669 60.255C69.8569 63.5917 67.6252 65.26 65.3719 65.26C62.6419 65.26 61.2769 63.8517 61.2769 61.035C61.2769 58.7383 62.6852 55.3367 65.5019 50.83C65.9352 50.1367 66.1519 49.5517 66.1519 49.075C66.1519 48.555 65.9135 48.295 65.4369 48.295C64.9602 48.295 64.3319 48.555 63.5519 49.075C62.8152 49.5517 61.9269 50.2667 60.8869 51.22C59.2402 52.7367 57.7019 54.5567 56.2719 56.68C54.8419 58.76 53.5419 61.1433 52.3719 63.83C52.1119 64.48 51.4402 64.87 50.3569 65C48.9702 65.13 48.1252 65.2817 47.8219 65.455ZM79.1473 65.26C76.9806 65.26 75.3123 64.61 74.1423 63.31C73.189 62.2267 72.7123 60.9267 72.7123 59.41C72.7123 57.2 73.4056 56.095 74.7923 56.095C75.3123 56.095 75.789 56.29 76.2223 56.68C76.6556 57.1133 76.8723 57.6117 76.8723 58.175C76.8723 58.5217 76.7856 58.8033 76.6123 59.02C76.049 59.7133 75.7673 60.4717 75.7673 61.295C75.7673 62.1183 76.0273 62.79 76.5473 63.31C77.1106 63.8733 77.8256 64.155 78.6923 64.155C79.6023 64.155 80.4256 63.8517 81.1623 63.245C82.159 62.335 82.6573 61.0783 82.6573 59.475C82.6573 58.0883 82.289 56.5283 81.5523 54.795C81.249 54.3617 80.8806 53.7983 80.4473 53.105C80.0573 52.4117 79.6023 51.5883 79.0823 50.635C78.779 50.115 78.5623 49.595 78.4323 49.075C78.3456 48.5117 78.3023 47.97 78.3023 47.45C78.3023 45.63 78.974 44.1783 80.3173 43.095C81.704 41.9683 83.4806 41.405 85.6473 41.405C86.254 41.405 86.839 41.47 87.4023 41.6C88.009 41.73 88.5506 41.9683 89.0273 42.315C90.024 43.0517 90.5223 43.9617 90.5223 45.045C90.5223 45.5217 90.4356 45.955 90.2623 46.345C89.8723 47.4717 89.0273 48.035 87.7273 48.035C86.2973 48.035 85.5823 47.2983 85.5823 45.825C85.5823 45.3917 85.6473 45.0233 85.7773 44.72C85.9073 44.2867 86.384 43.8533 87.2073 43.42C86.904 42.8567 86.3406 42.575 85.5173 42.575C84.7806 42.575 84.239 42.7483 83.8923 43.095C82.8523 44.005 82.3323 45.1533 82.3323 46.54C82.3323 47.4933 82.5923 48.5333 83.1123 49.66C83.199 49.8333 84.044 51.1983 85.6473 53.755C86.7306 55.4883 87.2723 56.94 87.2723 58.11C87.2723 59.9733 86.4056 61.62 84.6723 63.05C82.939 64.5233 81.0973 65.26 79.1473 65.26Z" fill="#EDEEF3"/>
</g>
<rect x="175" y="20" width="305" height="40" rx="15" fill="url(#paint0_linear_228_1880)"/>
<rect x="185" y="30" width="115" height="20" rx="10" fill="white" fill-opacity="0.7"/>
<rect x="420" y="30" width="20" height="20" rx="10" fill="white" fill-opacity="0.7"/>
<rect x="450" y="30" width="20" height="20" rx="10" fill="white" fill-opacity="0.7"/>
<g opacity="0.8">
<rect x="175" y="70" width="79" height="90" rx="15" fill="white"/>
<rect x="259" y="70" width="108" height="90" rx="15" fill="white"/>
<rect x="372" y="70" width="108" height="90" rx="15" fill="white"/>
<rect x="175" y="165" width="305" height="53" rx="15" fill="white"/>
<rect x="175" y="223" width="150" height="157" rx="15" fill="white"/>
<rect x="330" y="223" width="150" height="157" rx="15" fill="white"/>
</g>
<defs>
<linearGradient id="paint0_linear_228_1880" x1="480" y1="40" x2="175" y2="40" gradientUnits="userSpaceOnUse">
<stop stop-color="#1C84C6"/>
<stop offset="1" stop-color="#1AB394"/>
</linearGradient>
<clipPath id="clip0_228_1880">
<rect x="20" y="20" width="145" height="360" rx="15" fill="white"/>
</clipPath>
</defs>
</svg>
