<svg width="504" height="424" viewBox="0 0 504 424" fill="none" xmlns="http://www.w3.org/2000/svg">
<path d="M58.918 368.452L90.5371 371.92L66.2676 394.02L73.2461 424L45.2686 409.08L17.291 424L24.6191 394.02L0 371.92L32.6689 368.452L45.2686 339.733L58.918 368.452ZM162.283 368.452L193.902 371.92L169.633 394.02L176.611 424L148.634 409.08L120.657 424L127.985 394.02L103.366 371.92L136.035 368.452L148.634 339.733L162.283 368.452ZM265.649 368.452L297.269 371.92L272.999 394.02L279.978 424L252 409.08L224.022 424L231.351 394.02L206.731 371.92L239.4 368.452L252 339.733L265.649 368.452ZM369.016 368.452L400.634 371.92L376.365 394.02L383.343 424L355.366 409.08L327.389 424L334.717 394.02L310.098 371.92L342.767 368.452L355.366 339.733L369.016 368.452ZM472.381 368.452L504 371.92L479.73 394.02L486.709 424L458.731 409.08L430.754 424L438.083 394.02L413.463 371.92L446.132 368.452L458.731 339.733L472.381 368.452ZM229.759 1.61636C263.626 -3.46776 298.202 3.52851 327.435 21.381L310.377 49.3527C287.703 35.5057 260.885 30.0792 234.616 34.0226C208.348 37.9661 184.301 51.0288 166.686 70.924C149.07 90.8192 139.006 116.281 138.256 142.852C137.506 169.423 146.118 195.412 162.583 216.271C179.048 237.129 202.319 251.529 228.323 256.95C254.327 262.372 281.408 258.469 304.827 245.925C328.246 233.381 346.512 212.995 356.427 188.334C366.341 163.674 366.204 149.553 364.104 131.691L390.354 99.4679C400.941 132.06 399.588 168.772 386.805 200.567C374.022 232.361 350.473 258.643 320.279 274.816C290.086 290.988 255.171 296.02 221.645 289.03C188.118 282.041 158.116 263.476 136.888 236.583C115.659 209.69 104.557 176.183 105.524 141.926C106.492 107.668 119.466 74.8419 142.178 49.1916C164.889 23.5413 195.892 6.70048 229.759 1.61636Z" fill="#BBCAE1" fill-opacity="0.7"/>
<path d="M360.991 17.7285C369.57 7.14211 385.071 5.27809 395.926 13.6413C406.781 22.0045 408.944 37.4776 400.911 48.4853L400.521 49.0059L271.727 216.421C267.032 222.522 259.81 226.143 252.116 226.252C244.422 226.361 237.1 222.945 232.235 216.979L187.388 161.97L174.393 146.539L173.98 146.036C165.47 135.394 166.948 119.84 177.424 111.006C187.9 102.171 203.468 103.349 212.506 113.546L212.931 114.039L226.056 129.625L226.311 129.933L251.186 160.444L360.587 18.2395L360.991 17.7285Z" fill="#FF8100"/>
</svg>
